<?xml version="1.0" standalone="no"?>
<!DOCTYPE svg PUBLIC "-//W3C//DTD SVG 20010904//EN"
 "http://www.w3.org/TR/2001/REC-SVG-20010904/DTD/svg10.dtd">
<svg version="1.0" xmlns="http://www.w3.org/2000/svg"
 width="382.000000pt" height="250.000000pt" viewBox="0 0 382.000000 250.000000"
 preserveAspectRatio="xMidYMid meet">

<g transform="translate(0.000000,250.000000) scale(0.100000,-0.100000)"
fill="#FFFFFF" stroke="none">
<path d="M1339 2391 c-60 -62 -146 -208 -225 -381 -67 -147 -111 -264 -233
-613 -81 -231 -116 -310 -135 -304 -12 4 -13 174 -5 498 4 163 3 178 -15 198
-45 49 -95 5 -172 -154 -69 -143 -137 -349 -214 -645 -73 -284 -117 -426 -138
-447 -14 -14 -16 -13 -23 6 -5 11 -15 73 -24 138 -48 366 18 1093 141 1548 32
117 36 160 14 160 -66 0 -167 -443 -221 -965 -19 -183 -16 -636 4 -746 31
-165 61 -223 109 -211 51 13 84 111 204 589 63 254 109 398 170 527 50 107 87
161 111 161 18 0 17 -22 -8 -345 -17 -228 -1 -347 51 -375 18 -10 25 -7 52 22
40 43 77 125 148 333 160 469 261 701 386 890 54 83 84 112 104 100 15 -9 12
-176 -5 -301 -8 -60 -30 -205 -50 -322 -71 -430 -93 -645 -145 -1412 -10 -154
-6 -213 16 -231 22 -18 31 24 32 141 1 58 6 153 11 210 6 58 19 206 31 329 22
238 49 433 157 1136 30 198 37 409 14 463 -29 68 -78 69 -142 3z"/>
<path d="M1685 1658 c-38 -20 -96 -83 -125 -133 -59 -105 -79 -236 -40 -275
41 -41 74 -18 137 95 26 47 50 85 55 85 4 0 10 -12 13 -27 17 -82 79 -143 147
-143 38 0 110 29 123 50 11 18 25 10 25 -14 0 -48 17 -76 47 -76 42 0 82 29
159 115 l69 77 7 -59 c11 -99 -1 -131 -79 -222 -92 -106 -160 -205 -217 -316
-60 -116 -76 -172 -76 -264 0 -95 21 -135 77 -150 103 -29 213 73 281 258 36
101 72 284 78 406 8 175 4 164 98 238 45 36 89 67 96 69 9 2 14 -10 16 -37 5
-63 13 -83 35 -90 29 -10 62 24 111 115 50 91 96 160 107 160 4 0 11 -40 15
-90 12 -155 53 -230 129 -230 34 0 47 8 103 62 58 55 64 59 64 36 0 -32 19
-55 51 -63 33 -8 61 20 114 116 22 40 44 72 49 71 6 0 15 -18 21 -39 24 -82
71 -123 140 -123 52 0 93 20 156 78 62 57 90 105 70 125 -8 8 -29 -7 -82 -61
-81 -83 -132 -106 -178 -81 -37 20 -61 74 -61 136 0 65 -14 103 -38 103 -13 0
-39 -36 -88 -120 -38 -66 -72 -120 -76 -120 -5 0 -8 12 -8 28 1 76 88 232 146
259 30 15 34 14 67 -6 40 -24 57 -27 57 -7 0 46 -77 87 -136 72 -40 -10 -108
-80 -144 -148 -38 -71 -118 -187 -164 -235 -34 -37 -74 -43 -99 -15 -21 23
-34 85 -42 205 -7 102 -20 132 -53 120 -31 -11 -44 -27 -114 -135 -39 -60 -73
-106 -78 -103 -10 6 4 79 35 177 35 111 33 148 -7 127 -23 -12 -61 -92 -78
-161 -9 -36 -20 -52 -44 -66 -17 -11 -62 -44 -100 -75 -39 -31 -73 -54 -78
-51 -4 3 -8 31 -9 62 -1 84 -19 146 -44 150 -16 2 -35 -16 -78 -75 -86 -118
-157 -187 -174 -169 -12 11 16 96 53 161 87 156 197 227 233 149 13 -30 35
-27 39 4 4 29 -40 72 -74 72 -49 0 -112 -40 -172 -107 -140 -159 -217 -231
-256 -238 -73 -14 -116 43 -125 165 -6 71 -7 75 -30 75 -20 0 -34 -18 -86
-108 -34 -59 -67 -113 -73 -119 -22 -22 -25 2 -7 67 28 105 116 225 165 225
10 0 29 -9 43 -20 47 -37 76 -19 39 26 -34 42 -94 56 -137 32z m600 -727 c-29
-234 -80 -376 -161 -451 -36 -33 -51 -40 -83 -40 -65 0 -89 40 -77 129 9 67
49 181 88 249 45 80 152 229 202 280 l41 43 3 -42 c2 -23 -4 -99 -13 -168z"/>
</g>
</svg>
